<svg width="250" height="91" viewBox="0 0 250 91" fill="none" xmlns="http://www.w3.org/2000/svg">
<g clip-path="url(#clip0_6_124)">
<path d="M141.918 51.7627C145.989 49.7696 148.517 46.3478 148.517 41.3982V41.2985C148.517 37.8104 147.467 35.2859 145.464 33.2594C143.133 30.8677 139.325 29.3727 133.382 29.3727H117V60.1007H128.195V53.6229H130.592L141.196 70H154L141.918 51.7627ZM137.355 42.2288C137.355 44.3216 135.713 45.5175 133.054 45.5175H128.195V38.8737H133.087C135.681 38.8737 137.355 39.9366 137.355 42.1291V42.2288Z" fill="white"/>
<path d="M229.557 28.3818C221.568 28.3818 214.977 32.9691 212.28 39.4985C211.981 36.8196 210.982 34.7436 209.251 33.0359C206.854 30.6252 203.026 29.1183 197 29.1183H180.389V56.6088L168.871 28.8841H157.586L147 54.3317L150.828 60.0909H191.741V53.5616H194.171L198.465 60.0909H211.348L205.622 51.6866C207.952 50.548 209.75 48.9743 210.915 46.9319C211.082 52.2891 213.612 56.9769 217.573 60.0909H241.208C245.403 56.843 248 51.8539 248 46.2286V46.1281C248.066 36.2171 240.043 28.3818 229.557 28.3818ZM159.65 51.6531L163.145 42.3444L166.607 51.6531H159.65ZM201.028 42.0765C201.028 44.1863 199.364 45.3916 196.668 45.3916H191.774V38.6949H196.734C199.364 38.6949 201.062 39.7663 201.062 41.9763V42.0765H201.028ZM236.615 46.3291C236.615 50.3473 233.885 53.9633 229.557 53.9633C225.196 53.9633 222.4 50.3136 222.4 46.2286V46.1281C222.4 42.1102 225.13 38.4939 229.457 38.4939C233.818 38.4939 236.615 42.1436 236.615 46.2286V46.3291Z" fill="white"/>
<path d="M52.028 52.4148C52.028 52.4148 68.3583 45.1456 78.8061 40.478C78.8061 40.478 79.5283 40.0267 80.2944 40.4623C81.0602 40.8976 80.9988 41.6322 80.9988 41.6322V60.4057C80.9988 60.7471 80.8557 61.0887 80.5696 61.3619C76.8499 64.9818 72.5579 67.8503 67.7651 69.831C62.8295 71.9481 57.5359 72.9727 52.0995 72.9727C46.6628 72.9727 41.3695 71.88 36.4336 69.831C34.86 69.1481 33.2863 68.3967 31.7842 67.5086C31.0688 67.1673 30.8542 66.2793 31.2834 65.6648C31.6411 64.9818 32.5709 64.7767 33.2148 65.1865C34.5738 65.9379 36.0047 66.6891 37.5068 67.3039C42.085 69.2162 47.0206 70.1724 52.028 70.1724C57.0351 70.1724 61.971 69.2162 66.6207 67.3039C70.8412 65.5282 74.7039 63.001 78.0659 59.7909V43.7406L52.6719 55.1467C52.4572 55.2148 52.2426 55.2833 52.028 55.2833C51.8134 55.2833 51.5987 55.2148 51.3841 55.1467L31.8558 46.4043C31.1403 46.0627 30.7826 45.2431 31.1403 44.5602C31.498 43.8772 32.3563 43.5358 33.0717 43.8772L52.028 52.4148Z" fill="white"/>
<path d="M104.218 28.3712L52.6403 4.75545C52.2844 4.54815 51.7866 4.54815 51.431 4.75545L-0.217444 28.3712C-0.715442 28.5785 -1 29.062 -1 29.6142C-1 30.1667 -0.715442 30.6501 -0.217444 30.8572L17.2831 38.8675C17.9946 39.2127 18.8484 38.8675 19.204 38.1768C19.5598 37.4863 19.2039 36.6577 18.4928 36.3125L3.6954 29.5454L52.0001 7.58661L100.234 29.6142L84.8671 36.6577C84.1556 37.0029 83.871 37.8315 84.1556 38.522C84.3692 39.0054 84.9383 39.2818 85.4362 39.2818C85.6495 39.2818 85.8631 39.2127 86.0764 39.1436L104.218 30.8572C104.715 30.6501 105 30.1667 105 29.6142C105 29.062 104.715 28.5785 104.218 28.3712Z" fill="white"/>
<path d="M52.8471 27.1789C53.2023 27.8772 52.918 28.7155 52.2074 29.0648L25.8424 41.7758V78.5124C25.8424 79.2807 25.203 79.9091 24.4214 79.9091C23.6395 79.9091 23 79.2807 23 78.5124V40.381C23 40.381 22.9992 40.1452 23.217 39.9951C23.4348 39.845 23.5001 39.8236 23.5001 39.8236L50.9284 26.5504C51.6388 26.2011 52.4916 26.4805 52.8471 27.1789Z" fill="white"/>
<path d="M160.512 68.5137H157.471L156.842 70H156L158.591 64.0546H159.401L162 70H161.142L160.512 68.5137ZM160.226 67.8342L158.992 64.9211L157.757 67.8342H160.226Z" fill="white"/>
<path d="M172.485 70C171.826 70 171.229 69.8729 170.695 69.6182C170.168 69.3578 169.754 69.0036 169.452 68.5553C169.151 68.1012 169 67.592 169 67.0273C169 66.4626 169.151 65.9561 169.452 65.5076C169.754 65.0538 170.171 64.6995 170.705 64.4446C171.239 64.1845 171.835 64.0546 172.494 64.0546C173.01 64.0546 173.48 64.1321 173.907 64.2871C174.334 64.4364 174.699 64.6606 175 64.9597L174.388 65.4827C173.892 65.0234 173.273 64.7936 172.532 64.7936C172.042 64.7936 171.6 64.8904 171.204 65.0841C170.809 65.278 170.498 65.5464 170.272 65.8896C170.052 66.2273 169.942 66.6066 169.942 67.0273C169.942 67.448 170.052 67.8301 170.272 68.1732C170.498 68.5109 170.809 68.7766 171.204 68.9705C171.6 69.1641 172.042 69.261 172.532 69.261C173.267 69.261 173.886 69.0284 174.388 68.5636L175 69.0866C174.699 69.3857 174.331 69.6127 173.898 69.7675C173.471 69.9225 173 70 172.485 70Z" fill="white"/>
<path d="M186.512 68.5137H183.471L182.842 70H182L184.591 64.0546H185.401L188 70H187.142L186.512 68.5137ZM186.226 67.8342L184.992 64.9211L183.757 67.8342H186.226Z" fill="white"/>
<path d="M195 64.0546H197.63C198.29 64.0546 198.875 64.1793 199.386 64.4284C199.898 64.6776 200.293 65.0286 200.572 65.4817C200.857 65.9289 201 66.4441 201 67.0273C201 67.6105 200.857 68.1285 200.572 68.5817C200.293 69.0289 199.898 69.377 199.386 69.6262C198.875 69.8753 198.29 70 197.63 70H195V64.0546ZM197.576 69.2611C198.082 69.2611 198.524 69.1677 198.905 68.9806C199.291 68.7938 199.589 68.5334 199.796 68.1993C200.004 67.8596 200.108 67.4689 200.108 67.0273C200.108 66.5857 200.004 66.1978 199.796 65.8637C199.589 65.524 199.291 65.2608 198.905 65.074C198.524 64.8869 198.082 64.7935 197.576 64.7935H195.892V69.2611H197.576Z" fill="white"/>
<path d="M213 69.2611V70H209V64.0546H212.89V64.7935H209.787V66.6196H212.551V67.3416H209.787V69.2611H213Z" fill="white"/>
<path d="M227.098 70L227.088 65.6685L224.711 69.278H224.279L221.902 65.6939V70H221V64.0546H221.771L224.514 68.2332L227.22 64.0546H227.991L228 70H227.098Z" fill="white"/>
<path d="M238.454 67.9446V70H237.547V67.9276L235 64.0546H235.98L238.032 67.1887L240.093 64.0546H241L238.454 67.9446Z" fill="white"/>
</g>
<defs>
<clipPath id="clip0_6_124">
<rect width="250" height="90.1727" fill="white" transform="translate(0 0.636353)"/>
</clipPath>
</defs>
</svg>
